<svg width="68" height="12" viewBox="0 0 68 12" fill="none" xmlns="http://www.w3.org/2000/svg">
<path d="M5.53385 8.8446L8.95378 10.8699L8.04622 7.0528L11.0677 4.48456L7.08887 4.14792L5.53385 0.553467L3.97884 4.14792L0 4.48456L3.01595 7.0528L2.11393 10.8699L5.53385 8.8446Z" fill="#FB8200"/>
<path d="M19.5339 8.8446L22.9538 10.8699L22.0462 7.0528L25.0677 4.48456L21.0889 4.14792L19.5339 0.553467L17.9788 4.14792L14 4.48456L17.016 7.0528L16.1139 10.8699L19.5339 8.8446Z" fill="#FB8200"/>
<path d="M33.5339 8.8446L36.9538 10.8699L36.0462 7.0528L39.0677 4.48456L35.0889 4.14792L33.5339 0.553467L31.9788 4.14792L28 4.48456L31.016 7.0528L30.1139 10.8699L33.5339 8.8446Z" fill="#FB8200"/>
<path d="M47.5339 8.8446L50.9538 10.8699L50.0462 7.0528L53.0677 4.48456L49.0889 4.14792L47.5339 0.553467L45.9788 4.14792L42 4.48456L45.016 7.0528L44.1139 10.8699L47.5339 8.8446Z" fill="#FB8200"/>
<path d="M61.5339 7.80565V2.3883L62.4801 4.73581L64.904 4.95134L63.0667 6.6348L63.6146 9.12795L61.5339 7.80565ZM67.0677 4.21738L63.0889 3.86205L61.5339 0L59.9788 3.86205L56 4.21738L59.016 6.97266L58.1139 11.0677L61.5339 8.89494L64.9538 11.0677L64.0462 6.97266L67.0677 4.21738Z" fill="#FB8200"/>
</svg>
